<svg xmlns="http://www.w3.org/2000/svg" viewBox="0 0 32 32">
<g clip-path="url(#clip0)">
<path d="M9.61449 13.1354L8.10418 14.2607C7.39344 13.6462 6.47171 13.5278 5.96457 13.5278C5.45373 13.5278 4.91698 13.6758 4.83554 14.0423C4.7541 14.3977 5.08726 14.6753 5.65732 14.8308C6.30883 15.0048 6.89741 15.1602 7.81174 15.4194C9.16658 15.808 10.0957 16.3929 10.0957 17.7515C10.0957 19.6282 8.42993 20.5981 6.20148 20.5981C3.97303 20.5981 2.45531 19.4394 2 18.899L3.59545 17.707C4.71708 18.6843 5.49445 18.8213 6.14595 18.8213C6.89371 18.8213 7.59334 18.6621 7.68218 18.2401C7.75621 17.8995 7.47488 17.6293 6.83818 17.4812C6.12004 17.3146 5.50925 17.1814 4.83183 17.0037C2.99207 16.5225 2.47382 15.4527 2.47382 14.4902C2.47382 13.1687 3.7028 11.8102 5.95717 11.8102C8.26335 11.8102 9.61449 13.1317 9.61449 13.1354ZM19.2353 11.9434H12.5056V20.3501H19.3575V18.4104H14.8673V17.0555H17.9582V15.201H14.8673V13.8609H19.2316V11.9434H19.2353ZM10.7657 22.2898H11.2877V10H10.7657V22.2898ZM20.2422 22.2898H20.7641V10H20.2422V22.2898ZM21.982 20.3501H27.3866C28.8302 20.3501 30.0037 19.4802 30.0037 18.0846C30.0037 16.9963 29.293 16.2745 28.2935 15.9561C28.2602 15.9487 28.2306 15.945 28.1973 15.945C28.2306 15.9413 28.2639 15.9376 28.2935 15.9265C28.8673 15.7007 29.4966 15.0973 29.4966 14.0719C29.4966 12.7689 28.3453 11.9397 26.9238 11.9397H21.9783L21.982 20.3501ZM24.3548 13.6906H26.2427C26.6758 13.6906 27.0275 14.0349 27.0275 14.4273C27.0275 14.8197 26.6758 15.1676 26.2427 15.1676H24.3548V13.6906ZM26.661 18.4844H24.3511V16.9519H26.661C27.0682 16.9519 27.4014 17.2813 27.4014 17.7181C27.4014 18.1512 27.0719 18.4844 26.661 18.4844Z" fill="black"/>
</g>
<defs>
<clipPath id="clip0">
<rect width="28" height="12.2935" transform="translate(2 10)"/>
</clipPath>
</defs>
</svg>